<mxfile host="app.diagrams.net" modified="2023-05-09T05:59:59.006Z" agent="Mozilla/5.0 (Windows NT 10.0; Win64; x64; rv:109.0) Gecko/20100101 Firefox/112.0" version="21.2.2" etag="ob6tOirgRxGW1Xe_cj_6" type="github">
  <diagram name="Seite-1" id="ZSRX2D3eNHx8aagZ0sxg">
    <mxGraphModel>
      <root>
        <mxCell id="0" />
        <mxCell id="1" parent="0" />
      </root>
    </mxGraphModel>
  </diagram>
</mxfile>
